<svg id="Layer_1" data-name="Layer 1" xmlns="http://www.w3.org/2000/svg" viewBox="0 0 1027.56 103.21"><defs><style>.cls-1{fill:#010101;}</style></defs><title>Logo_DeLinkscheHobby. 001svg</title><polygon class="cls-1" points="194.98 93.89 634.34 93.89 634.37 101.02 195.04 101.02 194.98 93.89"/><path class="cls-1" d="M197.32,98.07c-3.74,0-6.18-.08-7.27-.23a4.66,4.66,0,0,1-2.74-1.28q-1.41-1.29-1.41-8.14v-22h-9.81V90q0,8.77-6,8.77a17.06,17.06,0,0,1-2.8-.35,16.1,16.1,0,0,0-2.81-.35q-3.62,0-3.62,3.74c0,2.8,1.64,4.21,4.91,4.21.86,0,2-.06,3.56-.18s2.59-.17,3.22-.17q6.54-.47,9.35-.47h15.45c.08-2.29-.07-4.61-.08-6.88C197.3,98.23,197.32,98.15,197.32,98.07Z" transform="translate(-2.34 -4.18)"/><path class="cls-1" d="M195.84,5a12.41,12.41,0,0,0-1.52.12l-5.38.7a58.72,58.72,0,0,1-7.48.58,74.45,74.45,0,0,1-7.6-.58l-6.19-.7A16,16,0,0,0,165.92,5c-3.36,0-5,1.36-5,4.09a3.85,3.85,0,0,0,1.05,2.75,3.41,3.41,0,0,0,2.57,1.11,18,18,0,0,0,3.16-.35,9.28,9.28,0,0,1,2.45-.24q6,0,6,8.65V37.52h9.81V20.92q0-8.61,6-8.61a9.42,9.42,0,0,1,2.46.24,19.6,19.6,0,0,0,3.16.35,3.41,3.41,0,0,0,2.57-1.11,3.85,3.85,0,0,0,1-2.75Q201.1,4.95,195.84,5Z" transform="translate(-2.34 -4.18)"/><path class="cls-1" d="M657.28,79.72a16.17,16.17,0,0,0,.12-2.22q0-4.68-4.91-4.68-4.1,0-4.09,5.07c0,.62.07,2.42.23,5.42.08,1.54.12,2.88.12,4q0,6.45-2.69,8.58t-10.75,2.14h-4c0,.08,0,.16,0,.25,0,2.31.08,4.6,0,6.88h5.37c3.89.13,6.78.27,8.65.41,2.8.27,4.6.41,5.38.41,4,0,6-1.76,6-5.26,0-1.09-.1-2.71-.3-4.85s-.29-3.76-.29-4.86a40.26,40.26,0,0,1,.35-5.37Z" transform="translate(-2.34 -4.18)"/><path class="cls-1" d="M17.53,21.24q0-8.76-6-8.76a14.59,14.59,0,0,0-2.45.23A21.76,21.76,0,0,1,6,13.06c-2.42,0-3.62-1.25-3.62-3.74q0-4.1,5.26-4.09a12.56,12.56,0,0,1,1.52.12l6.19.81a55.28,55.28,0,0,0,7.48.47,62.49,62.49,0,0,0,6.55-.35l7.6-.82q2.22-.23,5.84-.23,10.63,0,17.77,3A30.3,30.3,0,0,1,75.33,22.06q5.44,9.82,5.44,22.79a47.81,47.81,0,0,1-4.32,20.63Q72.12,74.66,64.64,79q-9,5.25-21.74,5.26c-1.72,0-3.47-.08-5.26-.24l-8.07-.7Q25.48,83,21,83a46.74,46.74,0,0,0-6.31.35l-5.61.82a4.77,4.77,0,0,0-.82.12H7.36q-5,0-5-4.1a3.83,3.83,0,0,1,1.05-2.74A3.41,3.41,0,0,1,6,76.3a17.1,17.1,0,0,1,3.16.35,9.83,9.83,0,0,0,2.45.23q6,0,6-8.77Zm9.82-1.19V69.31c0,3.57,1.76,5.75,5.26,6.52q1.76.47,9.82.47,14,0,20.34-7.57,7.59-9.09,7.6-24,0-11.66-4.62-19.74T53.07,14.57a44.65,44.65,0,0,0-12.39-1.51q-9.24,0-11.28,1T27.35,20.05Z" transform="translate(-2.34 -4.18)"/><path class="cls-1" d="M142.72,49.3q0,4.44-.58,5.43t-3.39,1H101.58a3.27,3.27,0,0,0-2,.41,1.74,1.74,0,0,0-.47,1.35,21,21,0,0,0,5.26,14.61,17.44,17.44,0,0,0,22.5,3A12.77,12.77,0,0,0,132.43,68l1.06-3.39a3.62,3.62,0,0,1,3.85-2.81q4.33,0,4.33,4.44,0,7.61-7.72,13.51a28.1,28.1,0,0,1-17.53,5.9q-12.27,0-19.52-8.24T89.65,55.26q0-14.26,7.72-23.15t20.1-8.88q11,0,18.12,7.36T142.72,49.3Zm-42.43-3c0,1.09.86,1.63,2.57,1.63H130.8c1.63,0,2.45-.54,2.45-1.63a14.57,14.57,0,0,0-4.67-10.76,15.23,15.23,0,0,0-11-4.56,17.59,17.59,0,0,0-11.92,4.74Q100.29,40.41,100.29,46.26Z" transform="translate(-2.34 -4.18)"/><path class="cls-1" d="M228.75,49.76V65c0,3.9,0,6.19.12,6.9.39,3.5,1.44,5.26,3.15,5.26a17.85,17.85,0,0,0,2.93-.59,5.08,5.08,0,0,1,1.75-.23q4.44,0,4.44,3.85A3.48,3.48,0,0,1,239.67,83,5.7,5.7,0,0,1,236,84.13a46.19,46.19,0,0,1-5.69-.53,45.72,45.72,0,0,0-5.69-.52,55.67,55.67,0,0,0-6.8.46,60.87,60.87,0,0,1-6.1.59q-4.69,0-4.69-4t4-3.85a15.43,15.43,0,0,1,2.77.35,16.42,16.42,0,0,0,2.77.35q2.83,0,3.42-7.48V39.59q-.58-7.37-3.53-7.36a12.51,12.51,0,0,0-2.66.41,12.33,12.33,0,0,1-2.53.41q-4.24,0-4.25-3.74,0-4,5.14-4a28.54,28.54,0,0,1,3.16.12c2.49.31,4.09.47,4.79.47a21.82,21.82,0,0,0,2.86-.29,20.67,20.67,0,0,1,2.87-.3q3.39,0,3.39,4.56c0,.31,0,.78-.09,1.4a13.71,13.71,0,0,0-.1,1.41c-.06.62-.12,3-.19,7.24Q228.75,44.74,228.75,49.76Zm-6.08-30.62a6.26,6.26,0,0,1-4.61-1.93,6.29,6.29,0,0,1-1.93-4.62A6.11,6.11,0,0,1,218.06,8a6.63,6.63,0,0,1,9.23,0,6.11,6.11,0,0,1,1.93,4.56,6.29,6.29,0,0,1-1.93,4.62A6.3,6.3,0,0,1,222.67,19.14Z" transform="translate(-2.34 -4.18)"/><path class="cls-1" d="M263.93,28.78v3.33q7-8.88,18.71-8.88a23.65,23.65,0,0,1,11.92,3.21,16.9,16.9,0,0,1,7.6,8,27.75,27.75,0,0,1,1.63,10.4V67.06q0,5,.12,6,.58,4,3.16,4a17.38,17.38,0,0,0,2.74-.29,16,16,0,0,1,2.4-.3,3.67,3.67,0,0,1,2.63,1.06A3.41,3.41,0,0,1,316,80a3.66,3.66,0,0,1-1.4,2.92,5.14,5.14,0,0,1-3.39,1.17,50,50,0,0,1-5.38-.47,57,57,0,0,0-7-.47,43.21,43.21,0,0,0-5,.24q-5.85.7-6.19.7-4.68,0-4.68-4.09,0-3.63,4.05-3.63a11,11,0,0,1,2.15.24,20.32,20.32,0,0,0,2.86.47c1.9,0,2.94-2.15,3.1-6.43v-22a41,41,0,0,0-.59-8.53,11.28,11.28,0,0,0-4.54-6.9,14.87,14.87,0,0,0-8.73-2.69q-9.32,0-13.39,6.67Q265,41.82,265,52.8V68.35q0,5.15.7,7a2.57,2.57,0,0,0,2.57,1.87,11,11,0,0,0,2.57-.41,11.73,11.73,0,0,1,2.69-.41q3.62,0,3.62,3.92t-4.67,3.8c-.63,0-2.65-.23-6.08-.7a41.67,41.67,0,0,0-5.73-.35,60.45,60.45,0,0,0-6.54.46q-5.15.58-5.85.59-4.91,0-4.91-4,0-3.74,3.81-3.74a12.85,12.85,0,0,1,2.2.35,14.45,14.45,0,0,0,3.16.36q3.57,0,3.69-6.78V39.13a15.14,15.14,0,0,0-1-5.44,2.79,2.79,0,0,0-2.68-1.46,15.28,15.28,0,0,0-2.44.29,14.29,14.29,0,0,1-2.44.29c-2.86,0-4.29-1.24-4.29-3.74s1.76-3.85,5.26-3.85a5.4,5.4,0,0,1,1.17.11l4.33.47a16.62,16.62,0,0,0,3.27-.29l3.15-.29Q263.93,25.22,263.93,28.78Z" transform="translate(-2.34 -4.18)"/><path class="cls-1" d="M338.74,54.09l20-18.7a2.79,2.79,0,0,0,1-2.11c0-.78-.51-1.17-1.52-1.17a18.07,18.07,0,0,0-3.39.47,18.07,18.07,0,0,1-3.39.47q-4.1,0-4.09-3.74,0-4.1,5.15-4.09a30.53,30.53,0,0,1,3.27.23,114.2,114.2,0,0,0,12.27.94,28.11,28.11,0,0,0,4-.24l4.79-.7a20.67,20.67,0,0,1,2.69-.23q5.71,0,5.72,4,0,3.8-4,3.8a17.19,17.19,0,0,1-2.63-.29,16.23,16.23,0,0,0-2.63-.3c-1.95,0-4,1-6.08,2.93L357.68,46.61c-.86.78-1.29,1.4-1.29,1.87a3.42,3.42,0,0,0,.94,1.75l15,19.4Q378,77,380.47,77a10.87,10.87,0,0,0,1.93-.29,10.51,10.51,0,0,1,2.16-.3q4.21,0,4.21,3.74,0,4-5.38,4a61.73,61.73,0,0,1-6.25-.47,61.73,61.73,0,0,0-6.25-.47,45.84,45.84,0,0,0-5.44.47,45.63,45.63,0,0,1-5.32.47q-4.44,0-4.44-4,0-3.74,4.21-3.74a11.59,11.59,0,0,1,1.87.12,14.09,14.09,0,0,0,2.69.59c.7,0,1.05-.28,1.05-.82V76a.35.35,0,0,1-.12-.24l-1.17-1.63-1.52-2.22L351,56.31c-.78-1-1.41-1.52-1.87-1.52s-.9.39-1.76,1.17l-8.65,7.71v2.69c0,3.74,0,5.85.12,6.31q.58,4.1,3.27,4.09a9.52,9.52,0,0,0,2-.17,10.79,10.79,0,0,1,2.22-.18q4,0,4,3.86t-4.44,3.86a51.72,51.72,0,0,1-6-.53,51.32,51.32,0,0,0-6.13-.52,47.69,47.69,0,0,0-6.2.46,57.3,57.3,0,0,1-6,.59q-4.56,0-4.56-3.86t4.44-3.86a12.22,12.22,0,0,1,2.22.24,17.4,17.4,0,0,0,2.58.35q2.81,0,3.15-4.44l.35-4.56V20.77q-.24-6.3-.82-8a2.39,2.39,0,0,0-2.48-1.7,18.91,18.91,0,0,0-2.24.24,9.86,9.86,0,0,1-3.3.58q-3.9,0-3.9-3.62,0-4,4.58-4a30.44,30.44,0,0,1,3.3.12c1.95.23,3.25.35,3.87.35a24.61,24.61,0,0,0,2.76-.23,23,23,0,0,1,2.65-.24H335q3.76,0,3.76,4.79Z" transform="translate(-2.34 -4.18)"/><path class="cls-1" d="M419,23.23a20.57,20.57,0,0,1,13,4.09v-.47c0-2.88,1.24-4.32,3.74-4.32s3.85,1.25,3.85,3.74c0,.47-.06,1.64-.19,3.51a28.21,28.21,0,0,0-.39,4.67c0,.94.1,2.3.29,4.09a39.59,39.59,0,0,1,.29,4.09c0,3-1.26,4.44-3.79,4.44s-3.73-1.24-3.8-3.74V39.48q-.12-3.51-4-6a16.58,16.58,0,0,0-9.17-2.52,14.45,14.45,0,0,0-9,2.75,8.28,8.28,0,0,0-3.63,6.84q0,7.49,10.29,8.88l6.78.94Q443.13,53,443.12,66.83a16.71,16.71,0,0,1-6.41,13.62q-6.4,5.19-16.78,5.2a26.58,26.58,0,0,1-16.78-5.5v2.23q0,4.2-4,4.2c-2.88,0-4.32-1.59-4.32-4.79q0,.83.7-6.08a24,24,0,0,0,.23-3.27,28.27,28.27,0,0,0-.47-5.26,22,22,0,0,1-.46-3.86c0-2.72,1.24-4.09,3.74-4.09q2.45,0,3.09,1.17c.43.78.69,2.85.76,6.2s1.83,6.07,5.26,8.18,7.8,3.15,13.1,3.15A14.89,14.89,0,0,0,430.26,75,9,9,0,0,0,434,67.65q0-8-12.62-9.24-12-1.27-18.35-4.73t-6.31-12.1a16.37,16.37,0,0,1,6.17-13.27Q409.07,23.23,419,23.23Z" transform="translate(-2.34 -4.18)"/><path class="cls-1" d="M485.9,45.09q0-4.68,5.85-5.38a9.14,9.14,0,0,0-3.92-6.43,14.6,14.6,0,0,0-8.59-2.34,15.56,15.56,0,0,0-13,6.43q-4.9,6.43-4.91,17.07,0,11,4.62,17.24a15,15,0,0,0,12.8,6.25A14.22,14.22,0,0,0,487.71,75a14.68,14.68,0,0,0,5.2-8.06q1.17-4.1,1.41-4.68a4,4,0,0,1,3.74-2.34,4.41,4.41,0,0,1,4.56,4.56,17.53,17.53,0,0,1-1.87,7,24.24,24.24,0,0,1-4.45,6.78q-6.89,7.36-17.88,7.37-11.93,0-19.23-8.42t-7.3-22.09q0-14.49,7.54-23.2t20-8.71q9.36,0,15.55,5.08a16,16,0,0,1,6.19,12.92,10.63,10.63,0,0,1-2.39,7.13,7.73,7.73,0,0,1-6.14,2.81,6.94,6.94,0,0,1-4.85-1.76A5.6,5.6,0,0,1,485.9,45.09Z" transform="translate(-2.34 -4.18)"/><path class="cls-1" d="M528.22,8.29l-.47,22.77a31.79,31.79,0,0,1,8.56-6.14,22.8,22.8,0,0,1,9.14-1.69q10.08,0,16.18,5.73T567.72,44V63.56q0,6.9.12,7.59c.31,3.9,1.33,5.85,3,5.85a8.43,8.43,0,0,0,2.69-.66,8.53,8.53,0,0,1,1.87-.16c2.88,0,4.32,1.33,4.32,4s-1.87,4-5.61,4a41.47,41.47,0,0,1-4.44-.35,70.33,70.33,0,0,0-8-.59,34.4,34.4,0,0,0-4.67.24c-3.28.47-5.3.7-6.08.7a5.15,5.15,0,0,1-3.51-1.23,4,4,0,0,1-1.4-3.1,3.26,3.26,0,0,1,1.23-2.57,4.27,4.27,0,0,1,2.86-1,10.11,10.11,0,0,1,3,.58,6.13,6.13,0,0,0,2,.36c2.34,0,3.54-2.54,3.62-7.6,0-.94.08-2.77.23-5.5V52.69q0-11.92-2.34-16-3.4-6.08-12-6.08-9.27,0-13.49,6.32-2.94,4.32-3,13.91v8.41a10,10,0,0,1-.47,2.34v2.22q0,6.66.12,7.71.6,5.73,3.48,5.73a10.06,10.06,0,0,0,2.71-.52,10.09,10.09,0,0,1,2.58-.53c2.57,0,3.85,1.25,3.85,3.73q0,4.22-5.18,4.22c-1.1,0-2.75-.12-4.94-.35a75.77,75.77,0,0,0-7.65-.47c-1.34,0-3.18.12-5.53.35q-4.71.47-6,.47-4.81,0-4.82-4.34c0-2.4,1.5-3.61,4.52-3.61a5.71,5.71,0,0,1,2.26.33A14,14,0,0,0,516,77q1.9,0,2.56-3.57t.77-14.55V38q0-17.54-.7-22.15t-3.27-4.62a13.2,13.2,0,0,0-2.46.35,13.29,13.29,0,0,1-2.57.35c-2.65,0-4-1.24-4-3.74a3.54,3.54,0,0,1,1.4-2.8,5.12,5.12,0,0,1,3.39-1.17c.39,0,1.71.11,4,.35a47.69,47.69,0,0,0,4.8.23,20.89,20.89,0,0,0,2.92-.29,20.44,20.44,0,0,1,2.69-.29q2.69,0,2.69,3.87Z" transform="translate(-2.34 -4.18)"/><path class="cls-1" d="M637.51,49.3q0,4.44-.59,5.43t-3.39,1H596.36a3.31,3.31,0,0,0-2,.41,1.74,1.74,0,0,0-.46,1.35,21,21,0,0,0,5.26,14.61,17.44,17.44,0,0,0,22.5,3A12.86,12.86,0,0,0,627.22,68l1-3.39a3.64,3.64,0,0,1,3.86-2.81q4.32,0,4.32,4.44,0,7.61-7.71,13.51a28.12,28.12,0,0,1-17.53,5.9q-12.29,0-19.52-8.24t-7.25-22.15q0-14.26,7.71-23.15t20.11-8.88q11,0,18.12,7.36T637.51,49.3Zm-42.43-3c0,1.09.85,1.63,2.57,1.63h27.93c1.64,0,2.46-.54,2.46-1.63a14.54,14.54,0,0,0-4.68-10.76,15.21,15.21,0,0,0-11-4.56,17.63,17.63,0,0,0-11.93,4.74Q595.08,40.41,595.08,46.26Z" transform="translate(-2.34 -4.18)"/><path class="cls-1" d="M697.82,38.66h37.41V21.48q0-8.77-6-8.77a24.84,24.84,0,0,0-2.51.23,24.16,24.16,0,0,1-3.1.24q-3.74,0-3.74-3.8,0-4.16,5-4.15a40.84,40.84,0,0,1,6,.76,45.81,45.81,0,0,0,8,.76,71,71,0,0,0,11.69-1A35.36,35.36,0,0,1,755,5.23q5.14,0,5.14,4.15,0,3.8-3.62,3.8a24.18,24.18,0,0,1-2.81-.24,25.91,25.91,0,0,0-2.8-.23q-6,0-6,8.77V68.11q0,8.77,5.84,8.77a21.93,21.93,0,0,0,2.87-.29,21.66,21.66,0,0,1,2.86-.29c2.41,0,3.62,1.24,3.62,3.74,0,2.8-1.71,4.21-5.14,4.21a31,31,0,0,1-4.56-.71,45.79,45.79,0,0,0-8.88-.81,70.86,70.86,0,0,0-10.87.7c-3.43.54-5.3.82-5.61.82-3.43,0-5.15-1.39-5.15-4.15,0-2.54,1.25-3.8,3.74-3.8a26.05,26.05,0,0,1,2.81.23,23.54,23.54,0,0,0,2.8.23c3.28,0,5.22-2.14,5.85-6.42q.12-.82.12-10.52V46.61H697.82V59.93q0,9.71.12,10.52.93,6.43,5.84,6.43a21.93,21.93,0,0,0,2.87-.29,21.82,21.82,0,0,1,2.86-.29c2.41,0,3.62,1.24,3.62,3.74,0,2.8-1.71,4.21-5.14,4.21-.55,0-2.22-.24-5-.71a61,61,0,0,0-9.81-.93,64.45,64.45,0,0,0-10.52.93l-2.81.47c-.93.16-1.44.24-1.52.24-3.58,0-5.38-1.39-5.38-4.15A3.71,3.71,0,0,1,674,77.45a3.53,3.53,0,0,1,2.63-1.15,25.9,25.9,0,0,1,3.16.29,11.34,11.34,0,0,0,2.45.29q6,0,6-8.77V21.24q0-8.76-6-8.76a14.18,14.18,0,0,0-2.57.35,16.1,16.1,0,0,1-3,.35A3.51,3.51,0,0,1,674,12a3.8,3.8,0,0,1-1.11-2.69c0-2.73,1.8-4.09,5.38-4.09a31.43,31.43,0,0,1,4.33.58,60.73,60.73,0,0,0,10.87.82,55.35,55.35,0,0,0,7.3-.7,55.13,55.13,0,0,1,7.19-.7q5.14,0,5.14,4.15a3.75,3.75,0,0,1-1,2.7,3.43,3.43,0,0,1-2.57,1.1,20.54,20.54,0,0,1-3.16-.3,20.65,20.65,0,0,0-2.57-.29q-5.73,0-5.84,8.77Z" transform="translate(-2.34 -4.18)"/><path class="cls-1" d="M793.79,85.65q-12.28,0-19.64-8.48t-7.37-22.73q0-14.26,7.43-22.74t19.93-8.47q12.74,0,20.1,8.3t7.36,22.56Q821.6,68.36,814,77T793.79,85.65Zm.58-54.71q-8.19,0-12.86,5.73t-5.14,16.25v1.52q0,11,4.62,17.24t12.91,6.25q8.54,0,13.39-6.25t4.85-17.36Q812.14,31,794.37,30.94Z" transform="translate(-2.34 -4.18)"/><path class="cls-1" d="M846,9.18q-1,9.66-1.17,22.93a23.54,23.54,0,0,1,7.62-6.89,21.12,21.12,0,0,1,9.73-2q11.71,0,18.64,8.18t6.91,21.74q0,14.85-7.3,23.67t-19.7,8.83q-12,0-17.41-9c.31,2.26.46,3.5.46,3.74,0,2.8-1.36,4.21-4.09,4.21s-4.09-1.95-4.09-5.85V70.57l.59-9v-43c-.08-2.88-.38-4.83-.88-5.84a2.71,2.71,0,0,0-2.63-1.52c-.24,0-1.25.16-3,.47a13.27,13.27,0,0,1-2.22.23c-2.65,0-4-1.24-4-3.74s1.56-3.86,4.68-3.86a19.06,19.06,0,0,1,2.34.12l2.8.35a25,25,0,0,0,3,.24A25.59,25.59,0,0,0,840,4.64a26.35,26.35,0,0,1,3.5-.35c1.72,0,2.57,1.09,2.57,3.26ZM845.69,43a51.67,51.67,0,0,0-.83,10.52q0,11.58,1.89,15.9,3.64,8.53,13.89,8.53a15.26,15.26,0,0,0,12.89-6.37q4.76-6.36,4.77-17.12,0-11-4.54-17.24a14.51,14.51,0,0,0-12.42-6.26,16,16,0,0,0-10,3.45A14.82,14.82,0,0,0,845.69,43Z" transform="translate(-2.34 -4.18)"/><path class="cls-1" d="M912,9.18q-1.05,9.66-1.17,22.93a23.54,23.54,0,0,1,7.62-6.89,21.12,21.12,0,0,1,9.73-2q11.72,0,18.63,8.18t6.92,21.74q0,14.85-7.31,23.67t-19.69,8.83q-12,0-17.42-9c.31,2.26.47,3.5.47,3.74,0,2.8-1.37,4.21-4.09,4.21s-4.09-1.95-4.09-5.85V70.57l.58-9v-43q-.12-4.32-.88-5.84a2.69,2.69,0,0,0-2.63-1.52c-.23,0-1.24.16-3,.47a13.07,13.07,0,0,1-2.22.23c-2.64,0-4-1.24-4-3.74s1.56-3.86,4.67-3.86a18.83,18.83,0,0,1,2.34.12l2.81.35a24.83,24.83,0,0,0,3,.24,25.61,25.61,0,0,0,3.62-.36,26.62,26.62,0,0,1,3.51-.35c1.71,0,2.57,1.09,2.57,3.26ZM911.61,43a51.79,51.79,0,0,0-.82,10.52q0,11.58,1.88,15.9,3.65,8.53,13.89,8.53a15.25,15.25,0,0,0,12.89-6.37q4.77-6.36,4.77-17.12,0-11-4.53-17.24a14.51,14.51,0,0,0-12.42-6.26,16,16,0,0,0-10,3.45A14.86,14.86,0,0,0,911.61,43Z" transform="translate(-2.34 -4.18)"/><path class="cls-1" d="M981,36.44,994.48,76,1008.74,37a8.22,8.22,0,0,0,.59-2.57c0-1.32-.9-2-2.69-2a8.13,8.13,0,0,0-2.22.24c-1.25.15-2.07.23-2.46.23-2.57,0-3.86-1.24-3.86-3.74q0-4,5-4a20,20,0,0,1,2.34.23l4.21.59a25.72,25.72,0,0,0,3.5.23,47.37,47.37,0,0,0,5.85-.53,47,47,0,0,1,5.84-.52q5,0,5,3.91c0,2.54-1.29,3.8-3.86,3.8a5.12,5.12,0,0,1-1.75-.23,10.82,10.82,0,0,0-2.11-.35c-1.48,0-3,2-4.56,6l-15.89,39.74q-5.26,13.22-9.94,19.17-7.95,10.17-19.87,10.17a19.49,19.49,0,0,1-12-3.62q-4.85-3.63-4.85-8.77a8.35,8.35,0,0,1,2.1-5.9,7.15,7.15,0,0,1,5.5-2.28,6.35,6.35,0,0,1,4.44,1.58,5,5,0,0,1,1.75,3.91,4.53,4.53,0,0,1-3.39,4.79c1.17,1.72,3.39,2.57,6.67,2.57a16,16,0,0,0,11.16-4.61q5-4.62,5-10.35,0-2.91-3.16-10.87L972.27,41.35l-1.4-3.74q-2-5.26-4.56-5.26a19.3,19.3,0,0,0-2.51.29,20.15,20.15,0,0,1-2.4.29c-2.73,0-4.09-1.24-4.09-3.74q0-4,5.38-4a20.41,20.41,0,0,1,2.69.13l4.67.69H971a11.26,11.26,0,0,0,1.4.11,83.1,83.1,0,0,0,9-.53c2.41-.27,4-.4,4.79-.4,3.28,0,4.91,1.28,4.91,3.85s-1.48,3.86-4.44,3.86a17.16,17.16,0,0,1-2.22-.23,16.05,16.05,0,0,0-2.22-.24,1.45,1.45,0,0,0-1.64,1.64A7.76,7.76,0,0,0,981,36.44Z" transform="translate(-2.34 -4.18)"/><rect class="cls-1" x="173.75" y="33.34" width="9.82" height="28.89"/></svg>